<?xml version="1.0" encoding="utf-8"?>
<!-- Generator: Adobe Illustrator 27.0.0, SVG Export Plug-In . SVG Version: 6.00 Build 0)  -->
<svg version="1.1" id="Layer_1" xmlns="http://www.w3.org/2000/svg" xmlns:xlink="http://www.w3.org/1999/xlink" x="0px" y="0px"
	 viewBox="0 0 464 649" style="enable-background:new 0 0 464 649;" xml:space="preserve">
<style type="text/css">
	.st0{fill:none;stroke:#000000;stroke-width:15;stroke-miterlimit:10;}
	.st1{fill:none;stroke:#000000;stroke-width:17;stroke-miterlimit:10;}
	.st2{fill:none;stroke:#000000;stroke-width:24;stroke-miterlimit:10;}
	.st3{fill:none;stroke:#000000;stroke-width:16;stroke-miterlimit:10;}
</style>
<path class="st0" d="M158.6,245.6C74.7,225.5,81.8,87.4,179.5,87v17.1"/>
<path class="st0" d="M179.5,237.7V248c-7.5,0-14.5-0.9-20.9-2.4"/>
<line class="st0" x1="179.5" y1="104.1" x2="179.5" y2="237.7"/>
<path class="st0" d="M251.2,292.4C303.3,414.2,107.5,460.8,99,329c0.7,82.3-1.9,164.3,1,246.5c27,0,51.5-10,80,0"/>
<path class="st0" d="M179.5,248c16.3,0,32.6,5.1,46,14.4"/>
<line class="st1" x1="183" y1="485.5" x2="103" y2="485.5"/>
<path class="st2" d="M391.6,174.6"/>
<path class="st2" d="M311.1,94.1"/>
<path class="st3" d="M295,463c5.8,31.3,30.5,90.7,65,131"/>
<path class="st3" d="M267,468"/>
<path class="st3" d="M292.6,467.9"/>
<path class="st3" d="M267,409c0-19.7,9.2-38.6,26.2-48.9c16-9.8,35.9-11.5,53.4-5c17.4,6.5,30.6,20.7,35.3,38.7
	c4.3,17,0.8,35.2-9.8,49.2c-10.4,13.6-26.4,22.2-43.4,24.1c-2.1,0.2-4.2,0.4-6.4,0.4"/>
<line class="st3" x1="267" y1="594" x2="267" y2="405"/>
<line class="st0" x1="315" y1="519.5" x2="267" y2="519.5"/>
<path class="st3" d="M372,203c-1.3,41.3-2.7,82.7-4,124c-33.5-33-55.3-70.3-68-111c-18.3,18-36.7,36-55,54
	c0.2-34.5,0.3-69,0.5-103.5c-18.2-0.3-32.3-1.2-50.5-1.5"/>
<path class="st3" d="M247,144c0,0,0-47.2,0-63"/>
<circle class="st0" cx="179" cy="327" r="50.5"/>
</svg>
